<svg xmlns="http://www.w3.org/2000/svg" viewBox="48 30 330 270" preserveAspectRatio="xMidYMax slice">
<defs>
<linearGradient id="w11" x1="0" y1="0" x2="1" y2="1"><stop offset="0" stop-color="#f1ebdf"/><stop offset="1" stop-color="#ded2bc"/></linearGradient>
<linearGradient id="f11" x1="0" y1="0" x2="0" y2="1"><stop offset="0" stop-color="#cfc09f"/><stop offset="1" stop-color="#c3ac7f"/></linearGradient>
<linearGradient id="l11" x1="0" y1="0" x2="1" y2="1"><stop offset="0" stop-color="#ffffff" stop-opacity=".55"/><stop offset="1" stop-color="#ffffff" stop-opacity="0"/></linearGradient>
</defs>
<rect width="400" height="300" fill="url(#w11)"/>
<path d="M250 0H330L190 235H110Z" fill="url(#l11)"/><path d="M335 0H370L240 235H205Z" fill="url(#l11)" opacity=".6"/>
<rect y="232" width="400" height="68" fill="url(#f11)"/><rect y="232" width="400" height="2" fill="#ffffff" opacity=".5"/>
<ellipse cx="60" cy="262" rx="120" ry="14" fill="#ffffff" opacity=".18"/>
<g transform="translate(215 234) scale(.74) translate(-215 -234)"><g><ellipse cx="195.0" cy="236" rx="149.6" ry="19.448" fill="#4a3831" opacity=".16"/><path d="M86 150L124 129.1H304L266 150Z" fill="#c9a971"/><rect x="86" y="150" width="180" height="84" fill="#dcc293"/><path d="M266 150L304 129.1V213.1L266 234Z" fill="#a98a57"/><path d="M176 174L189.92 182.0V198.0L176 206L162.08 198.0V182.0Z" fill="none" stroke="#4a3831" stroke-width="2"/><path d="M162.08 182.0L176 190L189.92 182.0M176 190V206" stroke="#4a3831" stroke-width="2" fill="none"/><rect x="126" y="214" width="100" height="3" rx="1.5" fill="#6b5d56" opacity=".7"/></g><path d="M86 150L124 131H304L266 150Z" fill="#c9a971"/><path d="M118 150L156 131" stroke="#a98a57"/><g transform="translate(290 168)"><rect width="70" height="52" rx="4" fill="#ffffff"/><rect x="8" y="8" width="28" height="4" fill="#6b5d56"/><rect x="8" y="17" width="40" height="3" fill="#8b817d"/><rect x="8" y="24" width="34" height="3" fill="#8b817d"/><g fill="#4a3831"><rect x="8" y="34" width="2" height="12"/><rect x="13" y="34" width="3" height="12"/><rect x="18" y="34" width="4" height="12"/><rect x="23" y="34" width="2" height="12"/><rect x="28" y="34" width="3" height="12"/><rect x="33" y="34" width="4" height="12"/><rect x="38" y="34" width="2" height="12"/><rect x="43" y="34" width="3" height="12"/><rect x="48" y="34" width="4" height="12"/><rect x="53" y="34" width="2" height="12"/><rect x="58" y="34" width="3" height="12"/></g></g><circle cx="332" cy="140" r="16" fill="#b99a60"/><path d="M332 149c-9-6-10-12-6-15 3-2 5 0 6 2 1-2 3-4 6-2 4 3 3 9-6 15Z" fill="#f1ebdf"/></g>
</svg>
