<svg xmlns="http://www.w3.org/2000/svg" viewBox="48 30 330 270" preserveAspectRatio="xMidYMax slice">
<defs>
<linearGradient id="w6" x1="0" y1="0" x2="1" y2="1"><stop offset="0" stop-color="#f1ebdf"/><stop offset="1" stop-color="#ded2bc"/></linearGradient>
<linearGradient id="f6" x1="0" y1="0" x2="0" y2="1"><stop offset="0" stop-color="#cfc09f"/><stop offset="1" stop-color="#c3ac7f"/></linearGradient>
<linearGradient id="l6" x1="0" y1="0" x2="1" y2="1"><stop offset="0" stop-color="#ffffff" stop-opacity=".55"/><stop offset="1" stop-color="#ffffff" stop-opacity="0"/></linearGradient>
</defs>
<rect width="400" height="300" fill="url(#w6)"/>
<path d="M250 0H330L190 235H110Z" fill="url(#l6)"/><path d="M335 0H370L240 235H205Z" fill="url(#l6)" opacity=".6"/>
<rect y="232" width="400" height="68" fill="url(#f6)"/><rect y="232" width="400" height="2" fill="#ffffff" opacity=".5"/>
<ellipse cx="60" cy="262" rx="120" ry="14" fill="#ffffff" opacity=".18"/>
<g transform="translate(215 234) scale(.74) translate(-215 -234)"><g><ellipse cx="170.0" cy="236" rx="110.6" ry="14.378" fill="#4a3831" opacity=".16"/><path d="M90 120L120 103.5H250L220 120Z" fill="#524843"/><rect x="90" y="120" width="130" height="114" fill="#3c3330"/><path d="M220 120L250 103.5V217.5L220 234Z" fill="#2c2522"/><path d="M155 152L168.92 160.0V176.0L155 184L141.08 176.0V160.0Z" fill="none" stroke="#b99a60" stroke-width="2"/><path d="M141.08 160.0L155 168L168.92 160.0M155 168V184" stroke="#b99a60" stroke-width="2" fill="none"/><rect x="124" y="204" width="62" height="3" rx="1.5" fill="#b99a60" opacity=".7"/><rect x="134" y="212" width="42" height="2.5" rx="1" fill="#8b817d"/></g><rect x="262" y="150" width="62" height="84" rx="12" fill="#4a3831"/><rect x="268" y="158" width="50" height="62" rx="7" fill="#b99a60" opacity=".85"/><circle cx="293" cy="226" r="3" fill="#f1ebdf"/><g fill="none" stroke="#6b5d56" stroke-width="3"><ellipse cx="236" cy="226" rx="20" ry="7"/><ellipse cx="236" cy="222" rx="20" ry="7"/><ellipse cx="236" cy="218" rx="20" ry="7"/></g><rect x="334" y="214" width="26" height="18" rx="9" fill="#f1ebdf"/></g>
</svg>
